<mxfile host="app.diagrams.net" modified="2020-12-02T18:08:07.345Z" agent="5.0 (Windows)" etag="CzTVxgA77XGdG7RYbpqn" version="13.10.5" type="github">
  <diagram id="uGPZgziH7StoF2qraDm7" name="Page-1">
    <mxGraphModel dx="1038" dy="547" grid="1" gridSize="10" guides="1" tooltips="1" connect="1" arrows="1" fold="1" page="1" pageScale="1" pageWidth="1169" pageHeight="827" math="0" shadow="0">
      <root>
        <mxCell id="0" />
        <mxCell id="1" parent="0" />
        <mxCell id="TOX-AXd9uwdbG_oPJI73-1" value="Training and Certification" style="swimlane;html=1;childLayout=stackLayout;resizeParent=1;resizeParentMax=0;horizontal=1;startSize=20;horizontalStack=0;" vertex="1" parent="1">
          <mxGeometry x="10" y="10" width="760" height="380" as="geometry" />
        </mxCell>
        <mxCell id="TOX-AXd9uwdbG_oPJI73-2" value="Instructor" style="swimlane;html=1;startSize=20;horizontal=0;" vertex="1" parent="TOX-AXd9uwdbG_oPJI73-1">
          <mxGeometry y="20" width="760" height="120" as="geometry" />
        </mxCell>
        <mxCell id="TOX-AXd9uwdbG_oPJI73-3" value="Student" style="swimlane;html=1;startSize=20;horizontal=0;" vertex="1" parent="TOX-AXd9uwdbG_oPJI73-1">
          <mxGeometry y="140" width="760" height="120" as="geometry" />
        </mxCell>
        <mxCell id="TOX-AXd9uwdbG_oPJI73-4" value="Lane 3" style="swimlane;html=1;startSize=20;horizontal=0;" vertex="1" parent="TOX-AXd9uwdbG_oPJI73-1">
          <mxGeometry y="260" width="760" height="120" as="geometry" />
        </mxCell>
      </root>
    </mxGraphModel>
  </diagram>
</mxfile>
